<?xml version="1.0" encoding="utf-8"?>
<!-- Generator: Adobe Illustrator 23.1.0, SVG Export Plug-In . SVG Version: 6.00 Build 0)  -->
<svg version="1.1" id="Layer_1" xmlns="http://www.w3.org/2000/svg" xmlns:xlink="http://www.w3.org/1999/xlink" x="0px" y="0px"
	 viewBox="0 0 185 60" style="enable-background:new 0 0 185 60;" xml:space="preserve">
<style type="text/css">
	.st0{fill:#00B2E3;}
	.st1{fill:#FFFFFF;}
	.st2{fill:#231F20;}
</style>
<g>
	<g>
		<path class="st0" d="M29.9,0.6C9.9,0.6,0.5,10.1,0.5,30c0,20,9.4,29.4,29.4,29.4S59.3,50,59.3,30C59.3,10.1,49.9,0.6,29.9,0.6"/>
		<path class="st1" d="M29.9,18.1L29.9,18.1c-3.6-2.5-7.6-3.5-11.1-3.5c-3.1,0-6,0.7-8.5,2c0.5,6.2,4.1,12.9,11.2,16.3
			c-0.4,4.4,0.8,8.3,2.6,11.4c1.5,2.6,3.6,4.8,6,6.4c5.2-3.5,9.1-10,8.5-17.8c4-1.9,6.8-4.8,8.6-7.9c1.5-2.6,2.4-5.5,2.6-8.4
			C43.9,13.8,36.4,13.6,29.9,18.1z M43.4,22.9c-1.9,3.3-4.9,5.6-8.2,6.8c-1.7,0.6-3.8,0.6-5.3-0.9c-0.3,1.8-0.1,3.5,0.9,4.5
			c0.4,0.4,1.1,0.8,1.6,0.9c0.7,0.1,1.2,0.2,1.8,0c0,4.4-1.7,8.2-4.5,11.1c-0.9-0.9-1.7-2-2.4-3.1c-1.9-3.3-2.5-7-1.8-10.5
			c0.3-1.8,1.4-3.6,3.4-4.1c-1.4-1.2-3-1.9-4.4-1.5c-0.6,0.2-1.2,0.5-1.6,1c-0.5,0.5-0.7,1-1,1.6c-3.8-2.2-6.3-5.6-7.3-9.4
			c1.2-0.3,2.6-0.5,3.9-0.5c3.8,0,7.3,1.4,10,3.7c1.4,1.2,2.5,3,1.9,5c1.7-0.7,3.1-1.7,3.5-3.1c0.1-0.6,0.1-1.3-0.1-1.8
			c-0.2-0.7-0.5-1.1-0.9-1.6c3.8-2.2,8-2.6,11.8-1.7C44.6,20.4,44.1,21.7,43.4,22.9z"/>
		<g>
			<path class="st2" d="M85.7,24.9c-6.4,0-11-4.8-11-10.7v-0.1c0-5.9,4.7-10.7,11.1-10.7s11,4.8,11,10.7v0.1
				C96.7,20.1,92.1,24.9,85.7,24.9z M92,14.2c0-3.6-2.6-6.5-6.3-6.5c-3.7,0-6.2,2.9-6.2,6.5v0.1c0,3.6,2.6,6.5,6.3,6.5
				C89.4,20.7,92,17.8,92,14.2L92,14.2z"/>
			<path class="st2" d="M109.2,24.5v-8.9c0-2.1-1-3.2-2.7-3.2s-2.8,1.1-2.8,3.2v8.9h-4.5V8.7h4.5V11c1-1.3,2.4-2.5,4.7-2.5
				c3.4,0,5.4,2.3,5.4,5.9v10.3h-4.6V24.5z"/>
			<path class="st2" d="M122.4,24.8c-2.8,0-4.6-1.1-4.6-4.8v-7.5h-1.9V8.7h1.9V4.6h4.5v4.1h3.7v3.9h-3.7v6.8c0,1,0.4,1.5,1.5,1.5
				c0.8,0,1.6-0.2,2.2-0.6v3.6C125,24.5,123.9,24.8,122.4,24.8z"/>
			<path class="st2" d="M138.3,24.5v-1.7c-1.1,1.2-2.6,2-4.8,2c-3,0-5.5-1.7-5.5-4.9v-0.1c0-3.5,2.6-5.1,6.4-5.1
				c1.6,0,2.8,0.3,3.9,0.7v-0.3c0-1.9-1.2-2.9-3.4-2.9c-1.7,0-2.9,0.3-4.4,0.9l-1.1-3.4c1.7-0.8,3.5-1.3,6.2-1.3
				c4.9,0,7.1,2.5,7.1,6.8v9.2h-4.4V24.5z M138.4,18.1c-0.8-0.4-1.8-0.6-2.9-0.6c-1.9,0-3.1,0.8-3.1,2.2v0.1c0,1.2,1,1.9,2.5,1.9
				c2.1,0,3.5-1.2,3.5-2.8V18.1z"/>
			<path class="st2" d="M155.3,13.1c-3,0-4.8,1.8-4.8,5.6v5.9H146V8.7h4.5v3.2c0.9-2.2,2.4-3.6,5.1-3.5v4.7
				C155.6,13.1,155.3,13.1,155.3,13.1z"/>
			<path class="st2" d="M157.8,6.9v-4h4.7v4H157.8z M157.9,24.5V8.7h4.5v15.9L157.9,24.5L157.9,24.5z"/>
			<path class="st2" d="M173.3,24.9c-4.9,0-8.6-3.6-8.6-8.2v-0.1c0-4.6,3.7-8.3,8.6-8.3c4.9,0,8.6,3.6,8.6,8.2v0.1
				C181.9,21.2,178.2,24.9,173.3,24.9z M177.5,16.6c0-2.3-1.7-4.4-4.2-4.4c-2.6,0-4.1,2-4.1,4.3v0.1c0,2.3,1.7,4.4,4.2,4.4
				S177.5,19,177.5,16.6L177.5,16.6z"/>
			<path class="st2" d="M89.5,56.9v-8.3h-8.4v8.3h-4.6V36.1h4.6v8.2h8.4v-8.2H94v20.7h-4.5V56.9z"/>
			<path class="st2" d="M112.1,50.5H101c0.4,2,1.9,3.1,3.9,3.1c1.5,0,2.6-0.5,3.9-1.6l2.6,2.3c-1.5,1.8-3.6,3-6.5,3
				c-4.8,0-8.3-3.3-8.3-8.2V49c0-4.5,3.2-8.3,7.9-8.3c5.3,0,7.7,4.1,7.7,8.6v0.1C112.2,49.8,112.1,50.1,112.1,50.5z M104.4,44.3
				c-1.9,0-3.1,1.3-3.4,3.4h6.8C107.5,45.7,106.3,44.3,104.4,44.3z"/>
			<path class="st2" d="M124.2,56.9v-1.7c-1.1,1.2-2.6,2-4.8,2c-3,0-5.5-1.7-5.5-4.9v-0.1c0-3.5,2.6-5.1,6.4-5.1
				c1.6,0,2.8,0.3,3.9,0.7v-0.3c0-1.9-1.2-2.9-3.4-2.9c-1.7,0-2.9,0.3-4.4,0.9l-1.1-3.4c1.7-0.8,3.5-1.3,6.2-1.3
				c4.9,0,7.1,2.5,7.1,6.8v9.2L124.2,56.9L124.2,56.9z M124.3,50.5c-0.8-0.4-1.8-0.6-2.9-0.6c-1.9,0-3.1,0.8-3.1,2.2v0.1
				c0,1.2,1,1.9,2.5,1.9c2.1,0,3.5-1.2,3.5-2.8V50.5z"/>
			<path class="st2" d="M132.1,56.9V35.2h4.5v21.6L132.1,56.9L132.1,56.9z"/>
			<path class="st2" d="M146.2,57.1c-2.8,0-4.6-1.1-4.6-4.8v-7.5h-1.9V41h1.9v-4.1h4.5V41h3.7v3.9h-3.7v6.8c0,1,0.4,1.5,1.5,1.5
				c0.8,0,1.6-0.2,2.2-0.6v3.6C148.8,56.8,147.7,57.1,146.2,57.1z"/>
			<path class="st2" d="M162.9,56.9V48c0-2.1-1-3.2-2.7-3.2s-2.8,1.1-2.8,3.2v8.9h-4.5V35.2h4.5v8c1-1.3,2.4-2.5,4.7-2.5
				c3.4,0,5.4,2.3,5.4,5.9v10.3H162.9z"/>
		</g>
	</g>
</g>
</svg>
